<svg width="3353" height="769" viewBox="0 0 3353 769" fill="none" xmlns="http://www.w3.org/2000/svg">
<path fill-rule="evenodd" clip-rule="evenodd" d="M353.857 0.531294C357.104 1.71129 350.023 2.41629 327.861 3.12029C316.863 3.46929 304.715 4.09229 300.865 4.50429L293.866 5.25229L301.365 5.42429C311.9 5.66729 308.253 7.14029 295.366 7.84829C284.081 8.46829 274.311 10.2883 273.151 11.9853C272.756 12.5633 271.407 13.0723 270.152 13.1153C268.897 13.1583 265.395 13.3173 262.371 13.4673L256.872 13.7403L260.277 14.8283C263.585 15.8843 263.411 15.9673 254.278 17.7113C249.106 18.6993 243.974 19.2933 242.874 19.0313C241.774 18.7693 241.437 18.8133 242.124 19.1293C244.569 20.2513 243.294 21.1413 237.354 22.4593C231.936 23.6613 228.359 25.5363 231.484 25.5363C234.228 25.5363 231.2 26.7023 223.269 28.6973C213.983 31.0343 212.078 31.9923 216.064 32.3223C219.694 32.6233 220.357 33.5363 216.946 33.5363C215.425 33.5363 212.762 34.1833 211.03 34.9733C209.297 35.7633 205.225 37.5033 201.982 38.8403C196.728 41.0063 196.292 41.3973 197.982 42.4283C199.672 43.4583 199.552 43.5653 196.881 43.4093C191.727 43.1093 190.632 43.4713 190.058 45.6663C189.7 47.0373 188.972 47.5933 188.015 47.2253C187.197 46.9123 185.99 47.3033 185.333 48.0953C184.675 48.8883 183.32 49.5363 182.32 49.5363C181.319 49.5363 180.223 49.9863 179.883 50.5363C179.543 51.0863 179.768 51.5363 180.383 51.5363C180.998 51.5363 181.218 51.9933 180.873 52.5523C180.527 53.1113 179.84 53.3193 179.346 53.0133C178.206 52.3083 169.385 56.2763 169.385 57.4943C169.385 57.9933 168.534 58.6713 167.493 59.0023C166.452 59.3323 165.369 60.4873 165.087 61.5693C164.804 62.6513 163.739 63.5363 162.719 63.5363C161.7 63.5363 159.672 64.6423 158.214 65.9953C156.756 67.3473 154.402 68.7453 152.982 69.1023C151.562 69.4583 150.635 70.1263 150.918 70.5863C151.203 71.0473 149.325 72.6613 146.744 74.1733C144.163 75.6863 142.578 77.0993 143.22 77.3133C145.488 78.0693 144.351 79.5363 141.496 79.5363C139.764 79.5363 138.356 80.1793 137.988 81.1403C137.649 82.0223 136.736 82.4993 135.957 82.2003C135.141 81.8873 133.863 82.6913 132.942 84.0963C132.063 85.4383 130.739 86.5363 130.001 86.5363C129.262 86.5363 127.471 88.3283 126.022 90.5173C124.572 92.7093 122.265 94.7813 120.89 95.1263C119.516 95.4713 118.392 96.0843 118.392 96.4893C118.392 97.6543 113.932 102.535 112.861 102.543C111.822 102.55 106.894 109.324 106.894 110.746C106.894 111.217 105.778 112.159 104.414 112.839C103.051 113.519 101.441 115.066 100.837 116.276C99.6431 118.672 95.1737 122.536 93.597 122.536C93.056 122.536 92.3192 123.708 91.9592 125.14C91.0433 128.789 88.4247 132.536 86.79 132.536C86.0321 132.536 84.6223 134.173 83.6554 136.175C82.6886 138.176 81.4478 139.806 80.8979 139.797C80.3479 139.788 79.3721 140.963 78.7292 142.408C78.0863 143.854 77.5243 144.378 77.4794 143.575C77.4004 142.153 75.6756 145.04 70.7803 154.786C69.4685 157.399 67.9138 159.536 67.3259 159.536C65.2512 159.536 63.4354 162.171 64.6643 163.4C65.5121 164.248 65.4161 164.536 64.2853 164.536C63.4524 164.536 61.9737 166.209 60.9988 168.253C60.0239 170.297 58.3662 172.573 57.3144 173.31C56.2625 174.047 55.4016 175.299 55.4016 176.093C55.4016 176.887 55.0037 177.536 54.5188 177.536C53.6209 177.536 52.0681 181.331 52.3281 182.889C52.4071 183.358 51.6462 184.483 50.6383 185.389C49.6305 186.295 48.2327 188.999 47.5308 191.399C46.7509 194.067 45.5491 195.947 44.4363 196.238C43.3594 196.519 42.3696 198.001 42.0076 199.875C41.2107 203.994 38.2512 209.536 36.8464 209.536C35.2176 209.536 34.0358 212.458 28.9556 229.036C26.4269 237.286 24.5952 242.236 24.8832 240.036L25.4081 236.036L23.4244 240.995C21.7296 245.234 19.7579 252.611 16.7324 266.036L16.0565 269.036L15.4286 265.536C14.8266 262.175 14.7727 262.254 14.0748 267.536C13.6748 270.561 12.709 275.286 11.9271 278.036C9.19548 287.653 5.39904 309.132 4.43519 320.426C3.37135 332.89 2.45848 335.929 2.3235 327.453C2.24351 322.387 2.16952 322.231 1.18667 325.036C-0.125136 328.784 -0.480084 432.382 0.790728 441.036L1.6706 447.036L2.85242 443.036C3.96526 439.272 4.07124 439.745 4.64816 451.036C5.28706 463.537 7.12979 473.826 8.57058 472.936C9.03151 472.651 9.40845 474.21 9.40845 476.401C9.40845 480.512 11.3842 490.652 12.357 491.536C12.66 491.811 12.9479 493.386 12.9969 495.036C13.0469 496.686 13.4449 500.24 13.8828 502.934C14.6527 507.67 14.7227 507.753 16.0075 505.434C17.2903 503.119 17.3373 503.177 17.3723 507.092C17.3913 509.323 18.5401 514.723 19.9239 519.092C21.3077 523.461 22.2755 525.828 22.0746 524.351C21.8736 522.874 22.0336 521.14 22.4295 520.499C22.8265 519.857 23.4664 521.859 23.8523 524.948C24.2383 528.036 24.9221 530.335 25.3731 530.056C25.824 529.778 26.4819 530.784 26.8349 532.293C29.5075 543.712 33.8448 556.536 35.0347 556.536C35.7875 556.536 36.4044 557.367 36.4044 558.383C36.4044 559.399 37.2223 561.173 38.2222 562.327C39.223 563.48 40.8758 566.88 41.8956 569.882C43.0275 573.213 44.2203 575.16 44.9542 574.878C45.6931 574.595 46.42 575.812 46.8359 578.029C47.2078 580.015 48.1637 581.891 48.9576 582.196C49.7525 582.5 50.4024 583.554 50.4024 584.536C50.4024 585.518 51.1063 586.592 51.9651 586.922C52.825 587.252 53.247 587.978 52.902 588.536C52.5571 589.094 52.95 589.809 53.7749 590.126C54.6008 590.442 55.0307 591.339 54.7317 592.119C54.4328 592.898 54.6857 593.536 55.2946 593.536C55.9036 593.536 56.4015 594.716 56.4015 596.158C56.4015 598.376 56.6335 598.589 57.9013 597.536C59.1321 596.515 59.401 596.589 59.401 597.949C59.401 599.877 62.2746 604.673 64.1263 605.836C64.8272 606.276 65.4001 607.227 65.4001 607.95C65.4001 608.673 66.7589 610.788 68.4197 612.65C70.0804 614.513 72.2761 617.836 73.298 620.036C74.3208 622.236 76.7585 625.749 78.7152 627.843C80.6719 629.937 82.2686 631.737 82.2646 631.843C82.1837 633.879 84.9442 637.52 87.3129 638.501C89.2646 639.31 90.3964 640.493 90.3964 641.725C90.3964 643.685 99.5991 653.796 117.514 671.519C130.494 684.359 134.792 688.103 138.366 689.686C140.028 690.422 141.389 691.364 141.389 691.78C141.389 692.196 141.868 692.536 142.454 692.536C143.039 692.536 144.569 693.787 145.856 695.315C147.142 696.844 149.475 698.756 151.04 699.565C152.606 700.374 155.007 702.048 156.376 703.286C157.745 704.523 160.283 706.208 162.017 707.031C163.75 707.854 165.427 709.204 165.745 710.031C166.062 710.859 166.956 711.536 167.731 711.536C168.506 711.536 169.7 712.211 170.385 713.036C171.069 713.861 172.426 714.536 173.399 714.536C174.373 714.536 175.429 715.211 175.746 716.036C176.062 716.861 177.262 717.536 178.411 717.536C179.56 717.536 180.234 717.969 179.907 718.498C179.26 719.543 186.341 723.536 188.842 723.536C189.741 723.536 190.382 724.413 190.382 725.643C190.382 727.129 190.836 727.576 191.921 727.159C193.552 726.533 197.379 728.261 198.623 730.185C199.032 730.816 201.619 731.874 204.373 732.534C208.925 733.626 211.201 735.472 208.129 735.58C205.977 735.655 214.754 738.505 217.187 738.521C218.456 738.529 219.253 738.928 218.956 739.408C218.373 740.352 225.856 743.536 228.659 743.536C229.604 743.536 230.376 744.131 230.376 744.858C230.376 745.678 232.832 746.692 236.853 747.531C241.75 748.554 243.083 749.181 242.317 750.105C241.542 751.038 242.984 751.495 248.428 752.041C252.345 752.435 256.749 753.119 258.212 753.561L260.871 754.364L257.955 754.45C256.351 754.497 255.226 754.721 255.455 754.947C256.219 755.7 271.294 758.547 275.36 758.707C279.582 758.872 280.969 760.431 277.119 760.683C273.184 760.94 286.548 762.312 294.866 762.504C302.808 762.688 302.837 762.698 298.866 763.924L294.866 765.158L300.365 765.923C325.402 769.406 406.811 769.122 415.727 765.519C417.813 764.677 417.81 764.662 415.539 764.599C414.266 764.564 413.508 764.087 413.848 763.536C414.188 762.986 418.152 762.504 422.656 762.466C427.161 762.427 431.746 762.009 432.846 761.536C434.25 760.932 434.399 760.63 433.346 760.52C430.327 760.206 437.454 758.721 448.01 757.464C457.891 756.288 458.535 756.088 455.342 755.187L451.843 754.199L457.342 753.341C460.367 752.869 464.225 752.265 465.916 751.997C467.607 751.73 469.95 750.617 471.123 749.524C472.296 748.43 474.512 747.53 476.047 747.522C480.378 747.501 483.247 746.462 482.726 745.104C482.465 744.425 482.834 743.813 483.545 743.744C489.387 743.177 498.336 739.929 498.336 738.375C498.336 737.914 499.199 737.536 500.254 737.536C503.343 737.536 505.247 736.471 504.701 735.048C504.367 734.177 505.328 733.509 507.514 733.091C512.129 732.21 524.332 726.384 524.332 725.062C524.332 724.464 525.569 723.442 527.082 722.792C530.166 721.465 533.077 719.65 535.109 717.786C535.859 717.099 536.964 716.536 537.564 716.536C539.613 716.536 548.329 710.331 548.329 708.873C548.329 708.073 548.748 707.677 549.259 707.993C549.771 708.31 550.472 708.111 550.818 707.552C551.163 706.993 552.211 706.536 553.146 706.536C554.082 706.536 555.408 705.636 556.095 704.536C556.782 703.436 557.787 702.536 558.328 702.536C559.487 702.536 563.625 699.188 567.385 695.211C568.854 693.658 572.253 691.353 574.94 690.089C578.077 688.613 583.757 683.886 590.822 676.871C608.053 659.763 615.319 652.006 615.319 650.721C615.319 650.069 615.699 649.536 616.162 649.536C617.827 649.536 622.071 644.988 622.695 642.536C623.045 641.161 624.774 639.136 626.537 638.036C628.3 636.936 630.729 634.461 631.937 632.536C633.145 630.611 635.187 627.911 636.474 626.536C639.196 623.63 641.315 619.88 641.315 617.971C641.315 617.237 641.88 616.276 642.571 615.836C643.261 615.396 645.149 613.236 646.767 611.036C648.385 608.836 649.96 606.811 650.269 606.536C651.665 605.295 656.195 597.404 659.31 590.788C661.187 586.802 663.53 583.284 664.517 582.971C665.504 582.657 666.311 581.547 666.311 580.503C666.311 577.361 669.566 571.336 670.482 572.781C671.001 573.598 671.285 573.16 671.295 571.527C671.303 570.146 672.153 568.49 673.184 567.847C674.215 567.203 675.365 565.407 675.739 563.856C677.776 555.422 678.512 553.536 679.767 553.536C680.572 553.536 681.551 551.765 682.116 549.286C682.65 546.949 684.475 541.661 686.174 537.536C687.872 533.411 689.76 527.424 690.367 524.232C691.259 519.544 691.73 518.642 692.818 519.545C693.904 520.446 694.315 519.728 694.937 515.85C695.362 513.202 695.731 510.736 695.758 510.369C695.785 510.003 696.144 509.365 696.557 508.953C696.97 508.54 697.306 507.571 697.306 506.798C697.306 506.025 697.962 504.737 698.764 503.936C699.565 503.134 699.985 501.862 699.696 501.109C699.406 500.355 700.075 495.306 701.182 489.888C702.289 484.469 703.505 477.786 703.884 475.036C704.56 470.142 704.599 470.094 705.739 472.785C706.783 475.248 707.029 474.412 708.105 464.739C708.765 458.802 709.305 451.827 709.305 449.24C709.305 446.653 709.709 444.536 710.202 444.536C712.572 444.536 713.299 430.084 713.173 385.454C713.101 359.924 712.724 335.661 712.335 331.536C711.946 327.411 711.555 325.498 711.466 327.286C711.209 332.444 709.305 331.055 709.305 325.71C709.305 317.851 707.214 299.113 706.222 298.086C705.657 297.5 705.305 298.044 705.305 299.503C705.305 303.569 704.392 301.188 703.378 294.475C701.692 283.328 698.5 266.108 697.782 264.286C697.402 263.324 696.743 262.536 696.315 262.536C695.887 262.536 695.234 260.107 694.863 257.137C694.358 253.095 693.728 251.618 692.358 251.26C690.999 250.904 690.343 249.4 689.808 245.409C689.412 242.454 688.28 238.236 687.293 236.036C686.306 233.836 684.444 228.549 683.155 224.287C681.561 219.022 680.396 216.692 679.521 217.02C678.813 217.285 678.094 216.947 677.924 216.269C676.068 208.868 672.746 200.536 671.654 200.536C670.915 200.536 670.31 199.65 670.31 198.567C670.31 197.273 669.822 196.786 668.884 197.146C667.82 197.555 667.606 197.125 668.041 195.459C668.445 193.916 668.267 193.445 667.469 193.939C666.723 194.399 666.295 193.832 666.266 192.345C666.217 189.842 663.526 183.231 663.393 185.286C663.243 187.605 661.355 186.558 660.688 183.786C659.638 179.422 652.121 166.619 650.072 165.706C649.665 165.524 648.61 163.856 647.729 161.998C646.848 160.141 645.113 157.59 643.875 156.329C642.638 155.068 640.831 151.931 639.862 149.359C638.757 146.428 637.624 144.864 636.826 145.17C636.082 145.456 635.134 144.453 634.54 142.75C633.983 141.15 631.004 137.257 627.922 134.1C624.839 130.942 622.318 127.942 622.318 127.433C622.318 125.644 617.806 119.551 616.765 119.935C616.187 120.148 615.145 119.04 614.451 117.473C613.681 115.733 611.658 113.948 609.255 112.888C607.091 111.932 605.32 110.584 605.32 109.891C605.32 107.573 603.014 103.536 601.692 103.536C600.883 103.536 600.627 102.901 601.022 101.872C601.47 100.706 601.288 100.439 600.414 100.978C599.682 101.431 598.409 100.984 597.327 99.8923C589.075 91.5673 581.459 84.5363 580.692 84.5363C580.184 84.5363 579.038 83.6833 578.146 82.6413C577.253 81.5983 574.679 80.4343 572.424 80.0533C569.386 79.5393 568.326 78.8913 568.326 77.5463C568.326 75.5513 563.812 73.5363 559.344 73.5363C555.836 73.5363 554.942 72.5393 557.058 70.9903C558.486 69.9463 557.482 69.6393 550.794 69.0723C541.132 68.2523 538.655 67.4763 542.829 66.5743C547.783 65.5043 543.254 64.7233 530.331 64.4173C509.032 63.9133 504.214 64.2833 503.643 66.4663C503.091 68.5773 499.819 68.9143 497.394 67.1093C496.338 66.3233 496.137 66.3453 496.645 67.1923C497.115 67.9763 495.716 68.5713 492.298 69.0413C488.365 69.5823 487.491 70.0153 488.317 71.0123C489.135 71.9973 488.358 72.5453 484.915 73.4123C482.461 74.0303 479.56 74.5363 478.469 74.5363C477.377 74.5363 475.599 75.6613 474.518 77.0363C473.437 78.4113 472.054 79.5363 471.446 79.5363C470.838 79.5363 470.34 79.9463 470.34 80.4483C470.34 80.9503 468.584 81.6573 466.439 82.0193C463.869 82.4543 462.375 83.2983 462.062 84.4943C461.801 85.4923 460.296 86.9283 458.715 87.6863C457.135 88.4433 455.842 89.7323 455.842 90.5493C455.842 91.3673 455.32 92.0363 454.683 92.0363C453.308 92.0363 450.531 95.5853 447.824 100.802C446.703 102.965 445.333 104.362 444.608 104.084C443.861 103.797 443.344 104.38 443.344 105.508C443.344 106.559 442.894 107.696 442.344 108.036C441.794 108.376 441.344 109.576 441.344 110.702C441.344 112.046 440.864 112.565 439.946 112.213C438.955 111.833 438.207 113.027 437.381 116.309C436.565 119.546 435.958 120.528 435.364 119.567C434.767 118.6 434.171 119.504 433.355 122.614C432.717 125.046 431.564 129.286 430.793 132.036C426.711 146.596 424.792 172.882 427.224 180.924C427.741 182.636 428.425 186.857 428.742 190.304C429.445 197.942 433.168 213.661 434.598 215.036C435.31 215.72 435.445 215.482 435.024 214.286C434.685 213.324 434.844 212.536 435.376 212.536C435.909 212.536 436.345 213.381 436.345 214.414C436.345 215.446 437.02 216.851 437.845 217.536C438.67 218.221 439.359 219.738 439.377 220.908C439.394 222.079 440.968 224.589 442.876 226.488C444.783 228.386 446.344 230.524 446.344 231.238C446.344 231.952 447.132 233.337 448.093 234.316C449.055 235.296 450.513 237.379 451.332 238.947C452.15 240.514 453.838 242.26 455.081 242.827C456.324 243.393 457.342 244.235 457.342 244.697C457.342 245.158 458.017 245.536 458.842 245.536C459.667 245.536 460.342 246.018 460.342 246.607C460.342 247.786 462.807 250.536 463.864 250.536C465.149 250.536 473.34 258.947 473.34 260.266C473.34 260.999 473.998 261.851 474.801 262.16C475.605 262.468 476.543 263.603 476.885 264.681C477.381 266.243 477.795 266.402 478.923 265.466C480.083 264.504 480.339 264.765 480.339 266.914C480.339 268.412 480.902 269.536 481.651 269.536C482.374 269.536 483.586 271.119 484.345 273.055C485.105 274.99 486.198 276.416 486.774 276.224C487.905 275.847 489.285 277.886 491.893 283.78C492.804 285.838 493.919 287.294 494.371 287.015C494.823 286.735 495.348 287.526 495.538 288.771C495.728 290.017 496.416 290.93 497.067 290.8C497.718 290.671 498.539 292.102 498.892 293.981C499.281 296.059 500.005 297.217 500.737 296.936C501.491 296.646 502.425 298.364 503.238 301.533C503.951 304.316 505.153 307.211 505.909 307.967C507.336 309.394 512.334 323.294 512.334 325.835C512.334 326.631 513.257 329.369 514.386 331.92C515.513 334.471 516.898 340.692 517.462 345.744C518.194 352.303 518.966 355.278 520.16 356.151C521.644 357.235 521.87 360.662 522.162 386.454C522.394 406.82 522.169 415.536 521.413 415.536C520.819 415.536 520.333 414.336 520.333 412.869C520.333 408.007 519.18 411.259 518.266 418.702C517.77 422.736 517.066 428.286 516.702 431.036C516.338 433.786 516.08 436.862 516.131 437.872C516.187 439.012 515.716 439.513 514.888 439.195C513.556 438.684 511.83 443.465 512.277 446.43C512.393 447.196 511.891 448.202 511.161 448.664C510.079 449.35 510.094 449.508 511.239 449.521C512.322 449.532 512.237 449.986 510.868 451.499C509.891 452.578 509.363 454.17 509.696 455.037C510.031 455.91 509.706 456.84 508.965 457.124C508.127 457.446 507.809 458.64 508.109 460.336C508.501 462.563 508.351 462.815 507.246 461.772C506.143 460.731 505.533 461.611 503.785 466.772C502.618 470.217 501.14 472.924 500.5 472.786C499.86 472.649 499.336 473.288 499.336 474.207C499.336 475.126 498.588 476.705 497.675 477.714C495.827 479.756 494.491 481.97 491.237 488.376C490.024 490.763 488.426 492.948 487.686 493.233C486.944 493.517 486.338 494.213 486.338 494.778C486.338 495.344 485.213 496.849 483.838 498.124C482.463 499.398 481.339 500.912 481.339 501.488C481.339 502.065 480.889 502.536 480.339 502.536C479.789 502.536 479.339 503.463 479.339 504.595C479.339 505.727 478.942 506.409 478.457 506.109C477.025 505.224 472.156 509.614 472.776 511.231C473.426 512.923 471.145 515.536 469.018 515.536C468.213 515.536 467.296 516.211 466.979 517.036C466.663 517.861 465.715 518.536 464.872 518.536C464.03 518.536 463.341 519.211 463.341 520.036C463.341 520.861 462.666 521.536 461.841 521.536C461.016 521.536 460.338 522.099 460.334 522.786C460.326 524.044 455.96 526.536 453.765 526.536C453.116 526.536 452.026 527.886 451.343 529.536C450.586 531.364 449.366 532.536 448.222 532.536C447.189 532.536 446.344 533.211 446.344 534.036C446.344 534.869 445.455 535.536 444.344 535.536C443.244 535.536 442.344 535.956 442.344 536.47C442.344 536.983 441.106 537.546 439.595 537.72C437.619 537.947 436.928 538.528 437.139 539.786C437.308 540.796 436.808 541.536 435.954 541.536C435.141 541.536 433.209 542.061 431.661 542.702C430.113 543.344 428.546 543.906 428.179 543.952C426.916 544.111 426.016 545.536 427.18 545.536C427.821 545.536 428.346 545.986 428.346 546.536C428.346 547.086 426.111 547.536 423.378 547.536C419.575 547.536 418.534 547.858 418.938 548.911C419.436 550.209 411.677 552.795 400.467 555.068C398.361 555.495 397.544 556.037 398.302 556.506C398.98 556.925 396.812 557.565 393.41 557.95C390.049 558.33 387.533 559.02 387.82 559.484C388.824 561.109 384.785 561.638 366.896 562.228C348.176 562.845 326.761 561.813 331.361 560.516C334.891 559.521 332.525 558.831 322.93 558.058C318.129 557.672 314.577 556.885 313.931 556.064C313.12 555.035 299.767 551.536 296.652 551.536C296.377 551.536 296.411 550.861 296.728 550.036C297.156 548.919 296.576 548.536 294.457 548.536C292.892 548.536 291.071 547.884 290.409 547.087C289.748 546.29 287.556 545.116 285.538 544.478C283.52 543.84 280.207 542.017 278.178 540.427C276.147 538.837 273.546 537.536 272.396 537.536C271.248 537.536 270.048 536.861 269.732 536.036C269.415 535.211 268.642 534.521 268.013 534.503C266.484 534.458 262.371 530.972 262.371 529.721C262.371 529.174 260.346 527.539 257.872 526.089C255.397 524.638 253.372 523.021 253.372 522.494C253.372 521.967 252.697 521.536 251.873 521.536C251.048 521.536 250.373 520.861 250.373 520.036C250.373 519.211 249.746 518.536 248.98 518.536C248.214 518.536 247.328 517.861 247.011 517.036C246.695 516.211 245.536 515.536 244.437 515.536C243.063 515.536 242.618 515.063 243.017 514.025C243.433 512.94 243.139 512.689 241.974 513.136C240.844 513.57 240.516 513.329 240.895 512.341C241.219 511.499 239.802 509.453 237.408 507.303C235.19 505.311 233.375 503.119 233.375 502.43C233.375 501.741 231.912 499.755 230.126 498.015C225.913 493.915 220.812 486.711 219.872 483.536C218.922 480.325 217.385 478.414 216.294 479.088C215.822 479.379 215.145 478.362 214.788 476.827C214.432 475.292 213.591 473.136 212.921 472.036C212.25 470.936 210.906 467.931 209.932 465.359C208.804 462.377 207.693 460.862 206.867 461.179C205.451 461.723 204.901 459.816 200.786 440.075C199.414 433.497 198.087 427.909 197.837 427.659C197.586 427.408 197.342 429.19 197.295 431.619C197.212 435.896 197.179 435.941 196.249 433.036C195.721 431.386 195.491 426.436 195.738 422.036C195.985 417.636 195.893 415.836 195.534 418.036C194.509 424.316 193.664 421.144 192.336 406.031C190.637 386.688 192.063 352.603 194.509 354.115C194.988 354.411 195.414 351.815 195.455 348.345C195.532 341.841 196.069 337.515 196.904 336.68C197.166 336.417 197.388 337.29 197.396 338.619C197.424 342.97 199.193 338.6 200.458 331.058C202.201 320.663 206.383 307.536 207.952 307.536C208.688 307.536 209.583 305.963 209.945 304.036C210.306 302.111 211.002 300.536 211.489 300.536C211.978 300.536 212.378 299.861 212.378 299.036C212.378 298.211 212.749 297.536 213.202 297.536C213.655 297.536 214.46 295.848 214.99 293.786C215.539 291.652 216.498 290.151 217.215 290.302C217.907 290.448 219.605 288.094 220.99 285.071C222.374 282.048 223.939 279.307 224.468 278.98C225.303 278.463 229.166 273.827 237.618 263.197C242.131 257.52 248.94 250.936 251.781 249.503C253.379 248.696 254.866 247.361 255.084 246.536C255.303 245.711 257.309 244.26 259.542 243.311C262.429 242.084 263.435 241.144 263.019 240.061C262.697 239.222 262.888 238.536 263.444 238.536C264 238.536 265.366 237.686 266.482 236.646C267.598 235.607 270.52 234.194 272.976 233.506C275.432 232.818 277.285 231.783 277.092 231.205C276.899 230.627 279.019 229.03 281.804 227.655C284.589 226.28 287.013 224.802 287.192 224.37C287.371 223.938 289.74 223.29 292.455 222.93C296.226 222.43 297.151 221.982 296.366 221.036C295.578 220.087 297.203 219.373 303.3 217.989C310.194 216.424 311.034 216.009 309.563 214.891C308.084 213.767 308.382 213.595 311.864 213.561C320.734 213.474 329.586 212.241 327.941 211.321C327.05 210.822 325.318 210.717 324.092 211.087C322.449 211.583 322.144 211.462 322.935 210.626C323.98 209.52 347.794 207.324 355.857 207.59C364.834 207.886 364.479 208.112 364.151 202.295C363.879 197.47 364.034 197.045 366.106 196.932C368.189 196.818 368.355 197.228 368.355 202.505C368.355 207.795 368.516 208.19 370.605 208.036C371.843 207.945 372.81 207.345 372.755 206.703C372.7 206.061 372.588 203.961 372.505 202.036C372.422 200.111 372.018 198.648 371.605 198.786C371.192 198.923 370.746 198.586 370.612 198.036C370.463 197.418 373.802 197.09 379.361 197.177C385.729 197.277 388.352 196.97 388.352 196.127C388.352 192.808 382.977 191.301 380.963 194.055C379.972 195.41 379.607 195.402 377.579 193.981C375.533 192.548 375.373 191.87 375.987 187.212C377.11 178.689 377.244 179.041 372.855 178.987C370.655 178.96 366.475 178.847 363.566 178.737L358.277 178.536L358.567 174.037C358.793 170.529 359.243 169.537 360.606 169.537C361.594 169.536 362.37 170.298 362.388 171.286C362.436 173.965 365.051 176.867 366.807 176.193C367.793 175.814 368.355 174.338 368.355 172.126C368.355 170.217 368.765 168.401 369.267 168.091C369.803 167.759 369.733 166.349 369.097 164.663C368.329 162.629 368.323 160.528 369.075 157.417C369.988 153.644 370.235 153.347 370.859 155.275C371.865 158.389 373.354 157.092 373.354 153.102C373.354 147.1 372.231 143.536 370.337 143.536C368.536 143.536 367.006 141.219 368.091 140.134C368.419 139.805 369.73 139.536 371.003 139.536C373.869 139.536 374.764 136.603 373.597 131.036C372.763 127.048 372.747 127.037 368.385 127.307C365.98 127.456 363.419 128.068 362.696 128.669C360.073 130.846 358.357 128.852 358.357 123.626C358.357 120.892 358.694 118.455 359.107 118.212C360.658 117.299 364.356 119.539 364.356 121.392C364.356 122.816 365.315 123.493 368.058 124.008C372.211 124.787 374.354 123.03 374.354 118.845C374.354 116.748 374.865 116.337 377.104 116.636C377.517 116.691 377.714 117.224 377.542 117.822C377.371 118.419 377.514 120.038 377.861 121.419C378.355 123.387 378.684 123.62 379.381 122.492C380.09 121.346 380.523 121.306 381.511 122.294C382.964 123.747 386.353 123.961 386.353 122.599C386.353 122.084 387.814 121.522 389.602 121.349C393.164 121.006 393.644 119.11 390.182 119.064C388.997 119.049 387.838 118.474 387.606 117.786C387.322 116.943 388.331 116.536 390.705 116.536C393.945 116.536 394.249 116.794 394.538 119.786C394.775 122.243 395.383 123.112 397.033 123.347C399.376 123.68 401.954 120.323 400.796 118.448C400.441 117.872 401.094 117.154 402.249 116.852C403.405 116.55 404.35 115.955 404.35 115.531C404.35 114.31 397.689 113.382 393.956 114.082C389.554 114.908 386.353 113.19 386.353 110.001C386.353 108.645 385.903 107.536 385.353 107.536C384.803 107.536 384.353 108.197 384.353 109.005C384.353 109.899 383.767 110.248 382.853 109.898C381.803 109.495 381.353 109.974 381.353 111.496C381.353 113.216 380.934 113.538 379.354 113.036C378.207 112.672 377.354 112.856 377.354 113.469C377.354 116.038 375.484 114.165 373.895 110.004C371.892 104.757 372.309 102.822 375.543 102.364C377.585 102.074 377.815 101.571 377.522 98.0363C377.339 95.8363 376.777 93.6083 376.272 93.0863C375.034 91.8053 375.1 83.8113 376.354 83.0363C376.904 82.6963 377.354 80.6483 377.354 78.4853C377.354 75.6363 376.803 74.2093 375.354 73.3043C372.848 71.7383 372.825 70.9083 375.269 70.2683C376.326 69.9923 377.335 68.7073 377.519 67.4023C377.74 65.8413 378.62 64.9273 380.103 64.7163C381.852 64.4683 382.353 63.7443 382.353 61.4663C382.353 59.5283 381.845 58.5363 380.853 58.5363C380.029 58.5363 379.34 59.0993 379.324 59.7863C379.306 60.5043 378.872 60.3133 378.303 59.3393C377.026 57.1483 378.197 49.5383 379.722 50.1243C380.346 50.3633 381.423 49.6543 382.114 48.5483C383.654 46.0813 381.885 42.5363 379.113 42.5363C378.146 42.5363 377.354 42.0863 377.354 41.5363C377.354 40.9863 377.974 40.5363 378.732 40.5363C380.697 40.5363 382.734 37.8903 381.402 37.0663C379.623 35.9663 380.224 34.8483 383.434 33.2933C387.371 31.3873 391.13 32.8873 391.558 36.5363C391.817 38.7373 392.33 39.0363 395.851 39.0363H399.851L400.151 33.2863L400.451 27.5363H397.101C395.258 27.5363 393.324 27.9633 392.802 28.4853C392.28 29.0073 389.979 29.7333 387.69 30.0993C384.2 30.6563 383.236 30.4233 381.718 28.6503C380.723 27.4873 379.335 26.5363 378.632 26.5363C377.929 26.5363 377.354 26.0383 377.354 25.4293C377.354 24.8203 377.97 24.5583 378.723 24.8483C379.477 25.1373 381.556 24.4833 383.345 23.3953C385.134 22.3063 387.203 21.6483 387.943 21.9323C388.683 22.2163 389.554 22.0183 389.879 21.4923C390.204 20.9663 389.431 20.5223 388.161 20.5043C386.891 20.4873 385.065 19.8753 384.103 19.1443C382.018 17.5623 381.778 14.5363 383.736 14.5363C385.56 14.5363 386.292 11.4743 385.451 7.36329C384.823 4.28829 384.417 3.99629 379.814 3.31229C372.373 2.20729 372.126 2.45729 372.507 10.7093C372.759 16.1733 372.506 17.9863 371.442 18.3403C370.322 18.7143 370.173 17.8783 370.689 14.1193C371.098 11.1303 370.973 9.65429 370.343 10.0433C369.8 10.3793 369.355 13.5523 369.355 17.0953C369.355 22.7483 369.587 23.5363 371.248 23.5363C373.303 23.5363 374.566 25.6013 373.511 27.2393C373.151 27.8003 371.505 28.4803 369.855 28.7493C368.205 29.0173 366.181 29.4173 365.356 29.6373C363.849 30.0383 363.801 29.4333 363.401 5.28629C363.362 2.88429 362.944 2.52129 360.106 2.41829L356.857 2.29929L359.857 1.53629C363.6 0.583294 363.136 0.354294 356.857 0.0472942C353.88 -0.0977057 352.667 0.0982938 353.857 0.531294ZM366.551 6.03629C366.571 7.68629 366.794 8.24029 367.048 7.26729C367.302 6.29429 367.285 4.94429 367.011 4.26729C366.737 3.59029 366.531 4.38629 366.551 6.03629ZM393.909 4.77029C392.662 8.81029 392.503 11.5763 393.35 14.5283C394.122 17.2233 393.986 18.0823 392.633 19.0723C391.075 20.2123 391.077 20.4673 392.663 22.8893C394.102 25.0863 394.86 25.3883 397.607 24.8613C403.881 23.6573 405.508 22.6723 405.169 20.2843C404.929 18.5953 404.29 18.1143 402.6 18.3493C400.782 18.6023 400.35 18.1803 400.35 16.1583C400.35 12.7863 402.324 11.7333 403.111 14.6853L403.737 17.0363L404.444 14.5363C405.685 10.1443 405.403 8.78629 403.1 8.06429L400.85 7.35829L403.35 6.58529C406.307 5.67029 405.035 5.00929 398.576 4.10429C395.567 3.68229 394.184 3.87929 393.909 4.77029ZM323.489 8.73229C323.662 10.7653 323.478 12.7533 323.082 13.1493C322.686 13.5453 322.362 11.6943 322.362 9.03629C322.362 3.47229 323.028 3.29329 323.489 8.73229ZM349.358 6.53629C349.358 8.00329 348.691 8.53629 346.858 8.53629C345.026 8.53629 344.359 8.00329 344.359 6.53629C344.359 5.06929 345.026 4.53629 346.858 4.53629C348.691 4.53629 349.358 5.06929 349.358 6.53629ZM350.108 10.5223C350.796 10.5303 351.358 10.9303 351.358 11.4113C351.358 12.6853 345.149 13.7263 344.059 12.6363C342.574 11.1513 344.39 9.30929 346.721 9.93529C347.896 10.2513 349.421 10.5153 350.108 10.5223ZM414.348 13.3413C414.348 15.5833 413.898 17.6963 413.349 18.0363C412.799 18.3763 412.349 19.0773 412.349 19.5953C412.349 20.8523 416.065 20.8043 416.848 19.5363C417.893 17.8453 419.348 18.4273 419.348 20.5363C419.348 22.4783 418.04 22.9893 414.098 22.5883C412.787 22.4553 412.349 23.1503 412.349 25.3663C412.349 29.0963 414.22 29.8493 419.92 28.4143C424.563 27.2443 425.744 25.1143 422.347 24.0363C419.546 23.1473 419.855 20.0823 422.885 18.7013C424.949 17.7603 425.237 17.2003 424.431 15.6943C423.767 14.4533 423.784 13.4993 424.481 12.8023C425.901 11.3823 424.521 10.6593 418.931 9.89229L414.348 9.26429V13.3413ZM438.068 15.5363C437.685 16.9113 437.366 19.2743 437.359 20.7863C437.347 23.1723 436.948 23.5363 434.345 23.5363C431.813 23.5363 431.346 23.9253 431.346 26.0363C431.346 28.0413 431.845 28.5363 433.865 28.5363C436.032 28.5363 436.298 28.8743 435.773 30.9663C435.233 33.1183 435.428 33.3273 437.478 32.7913C438.752 32.4583 439.224 31.9963 438.527 31.7633C437.553 31.4393 437.531 31.0173 438.432 29.9313C439.135 29.0843 439.401 26.7253 439.097 24.0283C438.715 20.6353 438.928 19.5363 439.968 19.5363C440.725 19.5363 441.344 18.8613 441.344 18.0363C441.344 17.2113 440.927 16.5363 440.418 16.5363C439.909 16.5363 439.328 15.7483 439.128 14.7863C438.849 13.4453 438.601 13.6213 438.068 15.5363ZM398.08 17.1403C397.748 17.4723 396.885 17.5083 396.164 17.2193C395.366 16.9003 395.603 16.6633 396.768 16.6153C397.822 16.5723 398.412 16.8083 398.08 17.1403ZM350.758 21.3343C350.703 21.9953 350.591 23.6613 350.508 25.0363C350.378 27.2103 349.89 27.5363 346.775 27.5363C344.352 27.5363 343.328 27.1313 343.612 26.2863C343.842 25.5993 344.667 24.9753 345.445 24.9013C348.532 24.6073 348.751 24.3073 346.363 23.6423C344.992 23.2613 343.715 22.1463 343.526 21.1663C343.236 19.6583 343.773 19.4423 347.02 19.7583C349.214 19.9723 350.815 20.6473 350.758 21.3343ZM308.614 26.2423C307.376 26.4803 305.353 26.4803 304.115 26.2423C302.877 26.0033 303.89 25.8083 306.364 25.8083C308.839 25.8083 309.852 26.0033 308.614 26.2423ZM331.001 26.8433C331.382 27.2243 329.594 27.5363 327.028 27.5363C324.462 27.5363 322.362 27.1333 322.362 26.6403C322.362 25.6153 329.951 25.7933 331.001 26.8433ZM452.343 32.0363C452.343 35.9633 453.791 36.7273 454.712 33.2863C455.668 29.7183 455.452 28.5363 453.843 28.5363C452.795 28.5363 452.343 29.5923 452.343 32.0363ZM476.882 31.4673C476.565 31.9793 476.764 32.6803 477.323 33.0263C477.882 33.3713 478.339 32.9523 478.339 32.0953C478.339 30.3383 477.739 30.0803 476.882 31.4673ZM368.355 33.5363C368.355 34.0863 369.48 34.5363 370.855 34.5363C372.23 34.5363 373.354 34.9543 373.354 35.4653C373.354 36.9553 370.28 39.6083 369.274 38.9863C368.769 38.6743 368.355 39.5473 368.355 40.9273C368.355 42.3073 367.567 43.9093 366.605 44.4863C364.939 45.4853 364.939 45.5993 366.605 46.8963C367.67 47.7243 368.418 49.7783 368.515 52.1463C368.667 55.8393 368.695 55.8713 369.078 52.7863C369.685 47.9003 372.572 48.3683 372.165 53.2863C371.931 56.1133 371.45 56.9703 370.21 56.7663C369.146 56.5923 368.124 57.6533 367.32 59.7663C366.279 62.5053 366.001 62.7113 365.613 61.0363C365.358 59.9363 364.571 58.3613 363.864 57.5363C363.157 56.7113 362.268 54.5733 361.888 52.7853C361.348 50.2473 361.563 49.3943 362.869 48.8933C364.245 48.3653 364.419 47.4363 363.853 43.6443C363.475 41.1093 362.791 38.3613 362.332 37.5373C361.799 36.5803 362.071 35.4043 363.082 34.2873C364.787 32.4033 368.355 31.8953 368.355 33.5363ZM352.132 35.0343C353.163 35.8473 350.747 38.4233 348.541 38.8603C345.453 39.4723 342.792 37.4563 343.67 35.1683C344.111 34.0183 345.186 33.7893 348.056 34.2323C350.147 34.5553 351.981 34.9163 352.132 35.0343ZM409.333 35.5663C408.376 37.3533 408.666 37.7713 411.766 39.0663C416.458 41.0273 417.032 40.9483 418.911 38.0803C421.105 34.7303 420.031 33.5363 414.824 33.5363C411.421 33.5363 410.172 33.9983 409.333 35.5663ZM324.362 35.5363C324.362 36.0863 324.164 36.5363 323.921 36.5363C323.678 36.5363 323.202 36.0863 322.862 35.5363C322.522 34.9863 322.721 34.5363 323.303 34.5363C323.885 34.5363 324.362 34.9863 324.362 35.5363ZM330.968 36.1183C330.634 36.9883 330.361 38.1133 330.361 38.6183C330.361 39.1233 329.461 39.5363 328.361 39.5363C326.894 39.5363 326.361 38.8693 326.361 37.0363C326.361 35.0093 326.854 34.5363 328.968 34.5363C330.934 34.5363 331.426 34.9253 330.968 36.1183ZM389.003 37.0043C388.693 37.8113 388.87 38.7383 389.396 39.0633C389.922 39.3883 390.352 38.7273 390.352 37.5953C390.352 35.1803 389.796 34.9373 389.003 37.0043ZM432.538 37.3543C429.476 37.6483 429.252 37.9083 429.538 40.8543C429.834 43.9103 430.004 44.0233 433.836 43.7133C438.845 43.3073 439.011 43.1173 437.272 39.7763C436.085 37.4963 435.289 37.0893 432.538 37.3543ZM310.864 40.5363C310.524 41.0863 309.823 41.5363 309.305 41.5363C308.787 41.5363 308.364 41.0863 308.364 40.5363C308.364 39.9863 309.066 39.5363 309.923 39.5363C310.78 39.5363 311.204 39.9863 310.864 40.5363ZM449.244 39.8173C449.189 39.9383 448.971 41.9493 448.76 44.2863C448.43 47.9313 448.646 48.5363 450.277 48.5363C453.438 48.5363 455.342 47.4203 455.342 45.5683C455.342 44.2363 454.74 43.9283 452.843 44.2913C451.384 44.5703 450.343 44.3043 450.343 43.6533C450.343 43.0383 450.793 42.5363 451.343 42.5363C452.888 42.5363 452.524 40.8203 450.843 40.1743C450.018 39.8583 449.298 39.6973 449.244 39.8173ZM372.355 41.5363C373.567 42.3203 373.423 42.5083 371.605 42.5213C370.367 42.5293 369.355 42.0863 369.355 41.5363C369.355 40.2833 370.416 40.2833 372.355 41.5363ZM390.187 43.2363C386.932 43.7453 386.408 44.9393 387.225 49.9733C387.915 54.2123 389.525 54.9293 395.988 53.8703C398.762 53.4153 399.199 52.8863 399.775 49.2843C400.133 47.0443 400.072 44.8823 399.639 44.4793C398.512 43.4313 393.311 42.7473 390.187 43.2363ZM414.348 43.5673C414.348 44.1003 415.023 44.5363 415.848 44.5363C416.673 44.5363 417.348 44.3593 417.348 44.1433C417.348 43.9273 416.673 43.4913 415.848 43.1743C415.023 42.8583 414.348 43.0353 414.348 43.5673ZM410.955 44.3653C410.557 45.0093 410.595 45.5813 411.04 45.6363C411.485 45.6913 410.724 46.0463 409.349 46.4253C407.342 46.9793 406.789 47.8463 406.54 50.8253L406.229 54.5363H411.589C417.665 54.5363 419.255 53.5013 418.583 49.9853C418.24 48.1913 417.468 47.5363 415.699 47.5363C414.133 47.5363 413.002 46.7723 412.481 45.3653C411.949 43.9273 411.434 43.5893 410.955 44.3653ZM467.548 49.5773C466.058 51.9623 466.728 53.5363 469.232 53.5363C471.84 53.5363 472.239 52.7253 470.973 49.9943C469.592 47.0173 469.177 46.9673 467.548 49.5773ZM349.793 49.5113C352.808 50.6573 353.17 53.1433 350.45 54.0073C349.401 54.3403 348.29 55.2703 347.982 56.0743C347.114 58.3353 345.973 57.8213 344.507 54.5083C342.195 49.2843 344.203 47.3863 349.793 49.5113ZM427.809 49.4883C426.122 50.1733 425.84 51.0173 426.165 54.4253C426.525 58.2033 426.792 58.5363 429.451 58.5363C431.061 58.5363 432.379 57.9813 432.42 57.2863C432.461 56.5993 432.692 54.9653 432.934 53.6553C433.344 51.4343 431.895 48.4563 430.474 48.5993C430.128 48.6343 428.929 49.0343 427.809 49.4883ZM332.361 51.1423C332.361 51.7913 331.682 52.5833 330.852 52.9013C330.022 53.2203 329.459 54.0293 329.602 54.6993C329.744 55.3693 329.118 56.0813 328.211 56.2813C326.918 56.5653 326.561 55.8723 326.561 53.0823C326.561 49.7673 326.762 49.5353 329.461 49.7403C331.056 49.8623 332.361 50.4933 332.361 51.1423ZM443.309 55.0783C442.339 56.2473 442.31 56.9023 443.186 57.7783C443.823 58.4153 444.344 59.7463 444.344 60.7363C444.344 61.7263 444.794 62.5363 445.344 62.5363C445.894 62.5363 446.344 62.0003 446.344 61.3453C446.344 60.6903 447.049 61.0273 447.909 62.0953C449.411 63.9583 449.457 63.9263 449.047 61.2863C448.812 59.7733 449.008 58.5363 449.482 58.5363C451.126 58.5363 450.332 55.6013 448.409 54.5713C445.788 53.1683 444.814 53.2653 443.309 55.0783ZM310.364 56.5363C310.364 57.6363 309.914 58.5363 309.364 58.5363C308.814 58.5363 308.364 57.6363 308.364 56.5363C308.364 55.4363 308.814 54.5363 309.364 54.5363C309.914 54.5363 310.364 55.4363 310.364 56.5363ZM376.354 55.5363C376.354 56.0863 375.904 56.5363 375.354 56.5363C374.804 56.5363 374.354 56.0863 374.354 55.5363C374.354 54.9863 374.804 54.5363 375.354 54.5363C375.904 54.5363 376.354 54.9863 376.354 55.5363ZM385.847 62.5713C384.934 67.9733 386.453 69.7263 391.707 69.3363C395.32 69.0673 395.821 68.7013 396.574 65.7783C397.88 60.7033 396.183 58.5363 390.905 58.5363C386.572 58.5363 386.522 58.5763 385.847 62.5713ZM406.35 60.5363C406.35 61.8103 410.378 61.8103 412.349 60.5363C413.465 59.8153 412.888 59.5633 410.099 59.5513C408.037 59.5433 406.35 59.9863 406.35 60.5363ZM461.341 61.4143C461.341 64.6263 463.774 65.8203 465.787 63.5953C467.914 61.2443 467.071 59.5363 463.782 59.5363C462.061 59.5363 461.341 60.0903 461.341 61.4143ZM405.493 64.3083C404.996 65.2593 404.812 67.4993 405.083 69.2863C405.528 72.2163 405.911 72.5363 408.962 72.5363C411.32 72.5363 412.349 72.0763 412.349 71.0223C412.349 70.1903 412.9 68.6263 413.574 67.5473C415.136 65.0443 413.694 63.4303 409.45 62.9363C407.316 62.6883 406.124 63.1013 405.493 64.3083ZM351.264 67.1493C350.39 68.2023 350.421 68.9073 351.393 70.0783C353.219 72.2803 351.353 73.7533 347.235 73.3593C344.146 73.0633 343.883 72.7813 344.144 70.0363C344.602 65.2283 344.938 64.8883 348.783 65.3373C351.746 65.6833 352.203 66.0173 351.264 67.1493ZM368.356 67.5413C368.68 68.9133 369.562 70.0363 370.317 70.0363C373.028 70.0363 372.392 72.3713 369.255 73.9363C366.402 75.3603 365.734 75.3723 363.084 74.0503C361.45 73.2353 359.749 72.7933 359.305 73.0683C358.859 73.3443 358.194 73.0813 357.825 72.4853C357.45 71.8773 358.078 71.1603 359.256 70.8523C360.625 70.4943 361.356 69.4993 361.356 67.9933C361.356 63.9573 367.418 63.5663 368.356 67.5413ZM420.908 65.3093C420.599 65.6173 420.348 67.5943 420.348 69.7033C420.348 73.8133 419.885 73.5593 428.079 73.9533C429.476 74.0203 429.815 73.1643 429.829 69.5363L429.846 65.0363L425.658 64.8923C423.353 64.8133 421.216 65.0003 420.908 65.3093ZM380.353 67.0363C380.353 67.8613 380.789 68.5363 381.322 68.5363C381.854 68.5363 382.031 67.8613 381.715 67.0363C381.398 66.2113 380.962 65.5363 380.746 65.5363C380.53 65.5363 380.353 66.2113 380.353 67.0363ZM401.35 67.0363C401.35 67.8613 401.8 68.5363 402.35 68.5363C402.9 68.5363 403.35 67.8613 403.35 67.0363C403.35 66.2113 402.9 65.5363 402.35 65.5363C401.8 65.5363 401.35 66.2113 401.35 67.0363ZM333.11 70.5223C333.798 70.5303 334.36 70.9303 334.36 71.4113C334.36 72.6853 328.151 73.7263 327.061 72.6363C325.577 71.1513 327.392 69.3093 329.724 69.9353C330.899 70.2513 332.424 70.5153 333.11 70.5223ZM437.935 71.1633C437.591 72.0573 437.819 73.4023 438.44 74.1503C439.061 74.8983 439.313 76.1773 439.001 76.9913C438.688 77.8063 438.812 78.7063 439.275 78.9933C440.436 79.7103 442.059 77.5413 442.612 74.5363L443.072 72.0363L443.208 74.7273C443.33 77.1383 445.24 79.8363 445.415 77.8453C445.454 77.4003 445.692 75.3493 445.943 73.2863C446.412 69.4353 445.653 68.6273 443.544 70.7363C442.611 71.6693 442.344 71.6693 442.344 70.7363C442.344 68.9343 438.653 69.2923 437.935 71.1633ZM317.363 71.6533C317.363 72.2683 316.486 72.5403 315.411 72.2593C314.337 71.9783 313.298 72.2303 313.102 72.8193C312.906 73.4083 312.203 73.5543 311.539 73.1443C310.875 72.7343 310.59 71.9793 310.907 71.4673C311.723 70.1453 317.363 70.3083 317.363 71.6533ZM384.55 77.2863L383.581 80.0363L382.53 77.5363C381.569 75.2483 381.474 75.4063 381.416 79.3933C381.366 82.8573 381.658 83.6333 382.843 83.1783C383.837 82.7973 384.534 83.4093 384.939 85.0223C385.456 87.0823 386.065 87.3953 389.086 87.1583C392.826 86.8633 395.779 84.0943 394.873 81.7333C394.586 80.9853 394.351 79.0593 394.351 77.4543C394.351 74.6703 394.148 74.5363 389.935 74.5363C386.02 74.5363 385.41 74.8473 384.55 77.2863ZM368.007 81.7863C368.594 84.1243 368.987 87.3863 368.881 89.0363C368.695 91.9423 368.519 92.0443 363.273 92.2913C358.534 92.5143 358.076 92.3753 359.607 91.1813C361.752 89.5063 361.844 88.5363 359.857 88.5363C358.927 88.5363 358.357 87.5943 358.357 86.0553C358.357 84.2243 359.031 83.4053 360.929 82.9283C362.344 82.5733 363.908 81.2153 364.404 79.9093C365.726 76.4313 366.804 76.9933 368.007 81.7863ZM403.043 79.3103C400.717 80.4623 400.288 81.2433 400.543 83.8683C400.834 86.8733 401.088 87.0513 405.47 87.3353C409.483 87.5963 410.164 87.3533 410.651 85.4893C411.388 82.6703 410.661 80.9593 408.015 79.2883C406.181 78.1303 405.421 78.1333 403.043 79.3103ZM421.347 81.5363C421.347 82.0863 420.418 82.5363 419.282 82.5363C417.617 82.5363 417.277 83.0713 417.532 85.2863C417.78 87.4463 418.438 88.1043 420.598 88.3523C422.214 88.5393 423.347 88.1863 423.347 87.4953C423.347 86.8503 423.985 86.5673 424.764 86.8663C425.544 87.1653 426.444 86.7263 426.764 85.8913C427.748 83.3263 427.417 82.2953 425.809 82.9123C424.934 83.2483 424.026 82.8633 423.702 82.0193C423.062 80.3513 421.347 79.9993 421.347 81.5363ZM352.015 84.0843C352.755 86.0143 349.572 88.6023 346.858 88.2763C345.497 88.1133 344.758 87.1593 344.543 85.2863C344.249 82.7373 344.489 82.5363 347.823 82.5363C350.148 82.5363 351.631 83.0843 352.015 84.0843ZM336.36 85.0583C336.36 85.8713 335.685 86.5363 334.86 86.5363C334.035 86.5363 333.346 87.0993 333.328 87.7863C333.31 88.5093 332.699 88.2463 331.877 87.1613C331.057 86.0783 329.803 85.5363 328.909 85.8793C328.02 86.2203 327.361 85.9413 327.361 85.2223C327.361 84.4353 329.03 83.8983 331.861 83.7753C335.252 83.6273 336.36 83.9433 336.36 85.0583ZM373.339 86.7863C373.347 87.1983 372.905 87.5363 372.355 87.5363C371.805 87.5363 371.362 86.5233 371.37 85.2863C371.383 83.4673 371.571 83.3233 372.355 84.5363C372.888 85.3613 373.33 86.3743 373.339 86.7863ZM432.939 85.7063C431.002 88.4733 430.854 90.7693 432.777 88.2333C434.055 86.5473 434.209 86.6123 435.165 89.2333L436.187 92.0363L436.416 89.2863C436.542 87.7733 436.69 86.0113 436.745 85.3693C436.931 83.2043 434.543 83.4153 432.939 85.7063ZM315.363 89.5363C315.363 90.0863 314.913 90.5363 314.363 90.5363C313.813 90.5363 313.363 90.0863 313.363 89.5363C313.363 88.9863 313.813 88.5363 314.363 88.5363C314.913 88.5363 315.363 88.9863 315.363 89.5363ZM349.358 90.4293C349.358 90.9203 348.646 91.5953 347.776 91.9293C345.542 92.7873 345.359 92.7193 345.359 91.0363C345.359 90.2033 346.248 89.5363 347.358 89.5363C348.458 89.5363 349.358 89.9383 349.358 90.4293ZM418.348 91.5953C418.348 92.1773 418.798 92.3763 419.348 92.0363C419.898 91.6963 420.348 91.2203 420.348 90.9773C420.348 90.7343 419.898 90.5363 419.348 90.5363C418.798 90.5363 418.348 91.0133 418.348 91.5953ZM384.853 92.3163C381.918 92.8863 380.569 95.1343 380.99 98.7503C381.494 103.082 382.564 103.895 387.508 103.701C392.582 103.502 393.153 102.763 392.418 97.3453C391.958 93.9563 391.384 93.0603 389.352 92.5523C387.977 92.2083 385.953 92.1023 384.853 92.3163ZM399.057 94.8013C397.562 95.2993 396.582 96.1003 396.879 96.5813C397.176 97.0613 396.861 98.3483 396.179 99.4393C395.144 101.097 395.246 101.763 396.8 103.48C398.855 105.75 403.282 106.204 405.15 104.336C405.81 103.676 406.35 101.253 406.35 98.9533C406.35 95.3883 406.012 94.7043 404.062 94.3323C402.804 94.0913 400.551 94.3023 399.057 94.8013ZM414.088 99.0763C411.528 101.451 410.143 105.399 412.349 104.036C412.899 103.696 413.349 104.318 413.349 105.418C413.349 107.919 414.778 108.852 417.357 108.033C419.426 107.376 419.991 103.538 418.718 98.7863C417.953 95.9323 417.444 95.9643 414.088 99.0763ZM348.819 102.536C350.673 102.536 352.865 105.446 351.766 106.449C351.266 106.905 349.672 107.557 348.222 107.897C346.213 108.37 345.477 108.095 345.122 106.739C344.561 104.593 346.375 99.4753 347.055 101.286C347.313 101.974 348.107 102.536 348.819 102.536ZM363.356 101.47C363.356 101.983 364.59 102.546 366.097 102.72C371.363 103.327 369.933 108.485 364.489 108.521C362.618 108.533 362.232 108.955 362.646 110.536C363.034 112.019 362.676 112.536 361.262 112.536C360.002 112.536 359.357 111.836 359.357 110.47C359.357 109.334 358.871 107.497 358.277 106.387C357.431 104.805 357.572 103.956 358.932 102.453C360.746 100.447 363.356 99.8673 363.356 101.47ZM336.36 105.603C336.36 107.128 333.361 107.937 332.161 106.736C331.575 106.15 331.374 104.946 331.713 104.06C332.204 102.782 332.747 102.672 334.345 103.528C335.453 104.121 336.36 105.055 336.36 105.603ZM319.046 106.724C318.727 107.521 318.49 107.284 318.442 106.119C318.399 105.065 318.635 104.475 318.967 104.807C319.299 105.139 319.335 106.002 319.046 106.724ZM410.349 116.323C410.349 116.756 411.249 117.178 412.349 117.261C413.449 117.344 414.348 116.99 414.348 116.474C414.348 115.958 413.449 115.536 412.349 115.536C411.249 115.536 410.349 115.89 410.349 116.323ZM351.357 120.703C351.358 121.619 350.796 122.632 350.108 122.953C349.108 123.419 349.108 123.653 350.108 124.119C350.796 124.44 351.358 125.043 351.358 125.459C351.358 126.512 346.692 128.537 345.959 127.802C345.203 127.046 345.168 120.061 345.916 119.312C347.195 118.033 351.357 119.096 351.357 120.703ZM408.027 119.191C407.081 120.138 407.207 121.772 408.364 123.536C409.24 124.869 409.469 124.869 410.425 123.536C411.19 122.47 411.642 122.38 411.988 123.224C412.316 124.025 413.131 123.754 414.494 122.39C415.605 121.279 416.365 120.242 416.181 120.085C415.293 119.328 408.622 118.596 408.027 119.191ZM336.39 124.536C336.018 124.811 335.424 125.823 335.068 126.786C333.835 130.13 332.361 128.508 332.361 123.807V119.078L334.713 121.557C336.007 122.92 336.761 124.261 336.39 124.536ZM319.046 126.724C318.727 127.521 318.49 127.284 318.442 126.119C318.399 125.065 318.635 124.475 318.967 124.807C319.299 125.139 319.335 126.002 319.046 126.724ZM380.853 128.492L376.854 129.036L376.552 134.286C376.309 138.494 376.557 139.536 377.802 139.536C378.95 139.536 379.354 140.593 379.354 143.595C379.354 145.827 378.972 147.418 378.505 147.129C377.006 146.203 375.201 151.045 375.533 155.103C375.831 158.752 376.071 159.031 378.854 158.972L381.853 158.907L381.528 149.222L381.203 139.536H384.407H387.61L386.919 134.286C386.54 131.399 385.92 128.791 385.541 128.492C385.163 128.193 383.053 128.193 380.853 128.492ZM392.285 132.786C392.247 133.474 392.017 135.581 391.773 137.47C391.366 140.616 392.397 142.475 394.575 142.521C394.974 142.529 396.03 141.124 396.923 139.397C398.179 136.968 398.303 135.725 397.47 133.897C396.344 131.426 392.404 130.581 392.285 132.786ZM361.492 135.495C362.059 137.123 363.386 138.728 364.44 139.063C366.876 139.836 366.856 140.772 364.356 143.036C363.256 144.031 362.356 145.634 362.356 146.597C362.356 147.856 361.794 148.202 360.356 147.826C358.919 147.45 358.357 146.462 358.357 144.312C358.357 142.065 357.984 141.465 356.857 141.898C356.032 142.214 355.357 142.037 355.357 141.505C355.357 140.972 355.984 140.536 356.75 140.536C358.362 140.536 359.357 138.406 359.357 134.954C359.357 131.685 360.241 131.909 361.492 135.495ZM405.19 137.419C404.689 142.665 405.065 143.536 407.825 143.536C410.467 143.536 411.027 142.453 410.923 137.536C410.859 134.52 410.484 133.994 408.209 133.73C405.798 133.451 405.538 133.769 405.19 137.419ZM351.158 139.736C352.774 141.352 352.671 142.536 350.915 142.536C350.121 142.536 348.827 143.456 348.039 144.581C346.784 146.372 346.529 146.424 345.983 144.999C345.64 144.105 345.359 142.284 345.359 140.954C345.359 139.098 345.893 138.536 347.658 138.536C348.923 138.536 350.498 139.076 351.158 139.736ZM400.35 139.477C400.35 139.995 400.8 140.696 401.35 141.036C401.9 141.376 402.35 140.952 402.35 140.095C402.35 139.238 401.9 138.536 401.35 138.536C400.8 138.536 400.35 138.959 400.35 139.477ZM335.29 140.286C335.251 140.698 334.833 141.936 334.36 143.036C333.598 144.808 333.493 144.723 333.43 142.286C333.392 140.774 333.81 139.536 334.36 139.536C334.91 139.536 335.328 139.874 335.29 140.286ZM338.36 141.095C338.36 141.952 337.91 142.376 337.36 142.036C336.81 141.696 336.36 140.995 336.36 140.477C336.36 139.959 336.81 139.536 337.36 139.536C337.91 139.536 338.36 140.238 338.36 141.095ZM324.051 145.286C323.8 146.249 323.594 145.461 323.594 143.536C323.594 141.611 323.8 140.823 324.051 141.786C324.303 142.749 324.303 144.323 324.051 145.286ZM371.355 146.536C371.355 147.086 370.932 147.536 370.414 147.536C369.896 147.536 369.195 147.086 368.855 146.536C368.515 145.986 368.939 145.536 369.796 145.536C370.653 145.536 371.355 145.986 371.355 146.536ZM386.353 153.414C386.353 158.17 387.981 159.73 391.865 158.691C394.404 158.012 394.792 157.405 395.038 153.727L395.319 149.536H390.836H386.353V153.414ZM400.532 154.036C399.906 155.411 398.822 156.546 398.122 156.559C397.423 156.571 398.313 157.302 400.099 158.183C404.203 160.206 406.201 158.881 405.566 154.555C405.013 150.785 402.148 150.489 400.532 154.036ZM348.858 158.465C348.858 162.311 347.993 164.047 346.529 163.141C345.95 162.783 345.629 160.813 345.816 158.763C346.246 154.057 346.138 154.296 347.608 154.786C348.296 155.015 348.858 156.671 348.858 158.465ZM363.61 157.786C364.261 162.18 363.586 163.536 360.749 163.536C358.581 163.536 358.357 163.116 358.357 159.036C358.357 154.96 358.582 154.536 360.743 154.536C362.67 154.536 363.222 155.162 363.61 157.786ZM324.362 161.736C324.362 163.351 324.066 163.64 323.249 162.823C322.637 162.211 322.439 161.221 322.808 160.623C323.843 158.949 324.362 159.321 324.362 161.736ZM338.022 162.786C337.745 163.474 337.518 162.911 337.518 161.536C337.518 160.161 337.745 159.599 338.022 160.286C338.3 160.974 338.3 162.099 338.022 162.786ZM372.355 165.036C371.418 166.165 371.392 166.876 372.25 167.909C372.877 168.665 373.147 169.915 372.85 170.688C372.554 171.461 372.914 172.918 373.65 173.926C374.905 175.642 375.095 175.652 376.672 174.075C377.597 173.15 378.354 171.525 378.354 170.465C378.354 169.382 379.04 168.536 379.917 168.536C380.963 168.536 381.375 169.279 381.166 170.786C380.985 172.086 381.381 173.036 382.103 173.036C383.662 173.036 383.691 172.855 382.854 168.393C382.284 165.354 381.667 164.649 379.138 164.143C374.68 163.251 373.731 163.376 372.355 165.036ZM386.614 167.036C385.054 172.121 385.973 174.536 389.469 174.536C392.158 174.536 392.352 174.271 392.352 170.603C392.352 167.404 391.933 166.537 390.102 165.955C387.924 165.263 387.916 165.215 389.852 164.458C391.814 163.691 391.813 163.675 389.77 163.606C388.235 163.554 387.405 164.456 386.614 167.036ZM396.018 169.203C394.896 170.325 395.273 173.051 396.832 175.095C398.114 176.775 398.448 176.834 399.317 175.536C401.078 172.903 400.579 168.536 398.518 168.536C397.509 168.536 396.384 168.836 396.018 169.203ZM348.508 172.536C348.591 174.186 348.703 176.061 348.758 176.703C348.813 177.344 348.296 178.057 347.608 178.286C346.729 178.579 346.358 177.342 346.358 174.119C346.358 169.099 348.266 167.694 348.508 172.536ZM406.924 173.995C406.125 178.251 406.391 178.841 408.706 177.953C410.67 177.199 410.732 175.855 408.952 172.643C407.633 170.263 407.621 170.271 406.924 173.995ZM357.357 176.036C357.357 176.861 356.921 177.536 356.388 177.536C355.856 177.536 355.679 176.861 355.995 176.036C356.312 175.211 356.748 174.536 356.964 174.536C357.18 174.536 357.357 175.211 357.357 176.036ZM338.36 177.095C338.36 177.952 337.903 178.371 337.344 178.026C336.785 177.68 336.586 176.979 336.903 176.467C337.76 175.08 338.36 175.338 338.36 177.095ZM381.367 181.786C381.392 185.909 382.558 188.536 384.363 188.536C386.408 188.536 387.352 186.613 387.352 182.454C387.352 179.878 387 179.536 384.353 179.536C381.905 179.536 381.356 179.95 381.367 181.786ZM373.167 185.979C373.339 188.687 373.189 192.058 372.833 193.47L372.186 196.036L370.271 193.675C369.217 192.377 368.355 190.464 368.355 189.425C368.355 188.203 367.649 187.536 366.356 187.536C365.256 187.536 364.356 187.086 364.356 186.536C364.356 185.986 365.256 185.536 366.356 185.536C367.628 185.536 368.355 184.869 368.355 183.703C368.355 181.37 369.341 180.388 371.306 180.76C372.401 180.968 372.946 182.497 373.167 185.979ZM348.433 183.811C348.392 184.21 348.358 185.211 348.358 186.036C348.358 186.861 347.908 187.536 347.358 187.536C346.808 187.536 346.358 186.374 346.358 184.953C346.358 183.532 346.842 182.531 347.433 182.728C348.024 182.925 348.474 183.412 348.433 183.811ZM363.356 185.071C363.356 185.787 363.091 187.063 362.767 187.907C362.289 189.154 361.82 189.218 360.267 188.248C358.444 187.109 357.728 184.498 358.915 183.311C359.886 182.339 363.356 183.714 363.356 185.071ZM392.352 184.869C392.352 186.153 392.621 187.472 392.95 187.8C394.194 189.046 396.351 187.225 396.351 184.929C396.351 183.203 395.794 182.536 394.351 182.536C392.923 182.536 392.352 183.203 392.352 184.869ZM401.918 187.294C402.695 192.644 403.343 194.061 403.364 190.453C403.371 189.124 403.632 187.086 403.944 185.924C404.323 184.513 403.966 183.603 402.871 183.182C401.437 182.632 401.317 183.152 401.918 187.294ZM357.357 183.929C357.357 184.145 356.682 184.581 355.857 184.898C355.032 185.214 354.357 185.037 354.357 184.505C354.357 183.972 355.032 183.536 355.857 183.536C356.682 183.536 357.357 183.713 357.357 183.929ZM348.358 195.095C348.358 195.888 347.908 196.536 347.358 196.536C346.808 196.536 346.358 195.609 346.358 194.477C346.358 193.345 346.808 192.696 347.358 193.036C347.908 193.376 348.358 194.302 348.358 195.095ZM366.356 194.036C366.356 194.861 365.906 195.536 365.356 195.536C364.806 195.536 364.356 194.861 364.356 194.036C364.356 193.211 364.806 192.536 365.356 192.536C365.906 192.536 366.356 193.211 366.356 194.036ZM392.352 195.119C392.352 195.99 392.886 196.525 393.539 196.307C395.393 195.689 395.7 193.536 393.934 193.536C393.064 193.536 392.352 194.249 392.352 195.119ZM405.35 200.477C405.35 201.914 406.987 202.612 408.759 201.932C411.2 200.995 410.646 199.536 407.849 199.536C406.475 199.536 405.35 199.959 405.35 200.477ZM377.53 203.786C376.551 207.394 377.658 209.74 379.927 208.87C381.399 208.305 381.812 204.897 380.746 202.118C379.78 199.599 378.483 200.271 377.53 203.786ZM397.351 201.536C397.351 202.086 397.801 202.536 398.351 202.536C398.901 202.536 399.351 202.086 399.351 201.536C399.351 200.986 398.901 200.536 398.351 200.536C397.801 200.536 397.351 200.986 397.351 201.536ZM386.353 205.536C386.353 208.315 386.619 208.536 389.959 208.536C392.837 208.536 393.443 208.216 392.959 206.954C392.625 206.084 392.352 204.734 392.352 203.954C392.352 203.045 391.275 202.536 389.352 202.536C386.686 202.536 386.353 202.869 386.353 205.536ZM36.4044 214.036C36.4044 214.861 35.9685 215.536 35.4356 215.536C34.9037 215.536 34.7267 214.861 35.0427 214.036C35.3596 213.211 35.7955 212.536 36.0115 212.536C36.2275 212.536 36.4044 213.211 36.4044 214.036ZM2670.01 223.036V288.536H2707.51H2745V224.618C2745 189.463 2744.73 159.988 2744.4 159.118C2743.86 157.715 2739.62 157.536 2706.9 157.536H2670.01V223.036ZM3309.33 194.189C3301.68 197.801 3287.76 204.469 3278.4 209.006C3269.04 213.543 3260.27 217.599 3258.91 218.018C3257.54 218.438 3255.98 219.128 3255.43 219.553C3253.42 221.108 3223.19 235.961 3214.93 239.451C3210.26 241.427 3199.01 246.918 3189.94 251.652C3180.86 256.387 3171.64 260.863 3169.44 261.599C3167.24 262.336 3157.75 266.851 3148.34 271.634C3138.93 276.417 3127.69 281.896 3123.34 283.809C3119 285.722 3108.7 290.541 3100.45 294.518C3092.2 298.494 3075.55 306.483 3063.46 312.272C3051.36 318.06 3032.69 327.064 3021.96 332.28C3011.24 337.497 2999.03 343.285 2994.82 345.143C2990.62 347.001 2983.42 350.558 2978.82 353.048C2967.86 358.987 2954.22 365.536 2952.81 365.536C2951.51 365.536 2933.42 374.623 2923.98 380.019C2920.4 382.062 2914.1 385.076 2909.98 386.717C2901.13 390.237 2895.54 392.815 2875.68 402.52C2867.54 406.5 2860.56 409.444 2860.18 409.063C2859.8 408.681 2859.43 360.144 2859.36 301.203L2859.24 194.036L2822.12 193.774L2785 193.512V378.524V563.536H2821.99H2858.99L2859.03 560.786C2859.05 559.273 2859.16 542.511 2859.28 523.536L2859.49 489.036L2864.99 486.303C2884.69 476.511 2921.9 458.536 2922.48 458.536C2923.22 458.536 2931.7 454.446 2978.47 431.525C2995.52 423.169 3015.09 413.736 3021.96 410.562C3032.27 405.803 3059.84 392.219 3073.71 385.063C3078.47 382.606 3081.85 384.128 3093.05 393.786C3098.32 398.323 3105.26 404.061 3108.47 406.536C3111.69 409.011 3115.53 412.161 3117 413.536C3118.47 414.911 3121.2 417.132 3123.06 418.472C3124.92 419.812 3127.57 421.926 3128.95 423.17C3134.68 428.357 3180.51 465.952 3185.23 469.34C3186.99 470.608 3189.56 472.618 3190.94 473.807C3192.31 474.997 3197.04 478.878 3201.44 482.433C3220.56 497.884 3230.53 505.983 3231.93 507.19C3235.57 510.33 3241.25 514.999 3244.38 517.414C3246.24 518.856 3252.87 524.35 3259.1 529.623C3270.88 539.597 3293.27 557.779 3300.34 563.121C3302.58 564.818 3305.04 566.956 3305.79 567.871C3306.55 568.787 3307.75 569.536 3308.47 569.536C3309.82 569.536 3316.49 562.104 3330.42 545.088C3334.82 539.712 3341.67 531.426 3345.66 526.674C3349.64 521.923 3352.9 517.485 3352.91 516.812C3352.91 516.138 3351.59 514.901 3349.96 514.062C3348.34 513.223 3346.65 511.935 3346.21 511.201C3345.77 510.467 3339.34 504.99 3331.92 499.03C3324.49 493.069 3317.52 487.409 3316.42 486.45C3311.41 482.088 3306.2 477.762 3303.8 475.98C3302.36 474.911 3294.53 468.636 3286.4 462.036C3278.27 455.436 3269.89 448.686 3267.8 447.036C3265.7 445.386 3260.7 441.338 3256.7 438.041C3252.7 434.744 3245.15 428.571 3239.93 424.322C3234.71 420.074 3228.63 415.015 3226.43 413.079C3224.23 411.144 3220.41 407.97 3217.93 406.026C3215.46 404.082 3210.73 400.289 3207.44 397.597C3195.74 388.057 3187.01 380.973 3180.86 376.036C3165.51 363.702 3149.94 350.391 3149.94 349.59C3149.94 349.109 3152.08 347.627 3154.69 346.297C3176.22 335.339 3181.87 332.536 3182.42 332.536C3183.02 332.536 3203.3 323.121 3226.43 312.095C3232.48 309.212 3244.18 303.667 3252.43 299.773C3260.68 295.878 3279.35 286.981 3293.92 280.001C3308.5 273.02 3324.02 265.748 3328.42 263.839C3332.82 261.93 3339.79 258.626 3343.91 256.496C3352.87 251.869 3352.89 251.787 3347.01 239.23C3344.76 234.427 3342.92 230.22 3342.92 229.88C3342.92 229.54 3341.17 225.611 3339.03 221.149C3330.37 203.094 3327.1 195.858 3325.96 192.3C3325.31 190.245 3324.43 188.352 3324.01 188.093C3323.59 187.833 3316.99 190.577 3309.33 194.189ZM23.4914 247.641C22.9644 248.958 22.5045 249.51 22.4695 248.868C22.3855 247.307 23.5504 244.346 24.0513 244.848C24.2702 245.067 24.0183 246.323 23.4914 247.641ZM840.786 194.534C822.335 196.537 797.636 209.371 783.832 224.128C771.779 237.012 769.705 239.77 766.46 247.231C764.592 251.524 762.438 255.751 761.672 256.625C759.502 259.101 755.209 276.03 754.085 286.536C752.973 296.939 751.789 549.511 752.812 558.194L753.42 563.351L758.355 563.694C761.069 563.882 777.684 563.906 795.277 563.746L827.264 563.456L827.526 525.746L827.788 488.036L1040.26 487.446C1187.41 487.038 1254.57 486.52 1258.72 485.762C1287.84 480.448 1317.62 458.409 1329.3 433.536C1330.72 430.511 1332.63 427.418 1333.54 426.664C1334.46 425.909 1335.21 424.47 1335.21 423.466C1335.21 422.462 1336.51 417.905 1338.09 413.338C1342.4 400.926 1343.22 388.82 1343.15 338.49C1343.09 291.939 1342.09 275.933 1338.85 269.757C1337.9 267.953 1337.39 266.063 1337.7 265.556C1338.5 264.255 1333.85 253.15 1329.51 246.036C1318.04 227.204 1303.12 212.997 1285.54 204.172C1282.69 202.742 1275.49 199.876 1269.54 197.804L1258.72 194.036L1053.25 193.905C940.246 193.833 844.635 194.116 840.786 194.534ZM1480.19 194.227C1477.17 194.418 1473.79 194.983 1472.69 195.483C1471.59 195.984 1468.22 197.164 1465.19 198.106C1447.95 203.477 1426.83 217.758 1417.23 230.536C1415.37 233.011 1413.34 235.486 1412.71 236.036C1410.23 238.193 1403.09 251.558 1399.07 261.536C1391.96 279.215 1391.96 279.289 1391.49 417.036C1391.27 483.036 1391.39 543.004 1391.75 550.298L1392.41 563.56L1429.05 563.298L1465.69 563.036L1466.19 525.536L1466.69 488.036L1681.16 487.527C1915.15 486.972 1895.28 487.457 1912.63 481.87C1928.44 476.776 1948.22 462.428 1958.39 448.665C1960.57 445.711 1963.21 442.449 1964.24 441.415C1965.27 440.382 1966.12 439.129 1966.12 438.631C1966.12 438.133 1968.14 434.441 1970.62 430.427C1973.09 426.412 1975.12 422.432 1975.13 421.582C1975.14 420.732 1976.06 417.111 1977.19 413.536C1981.33 400.328 1982.1 389.267 1982.34 338.678C1982.49 307.091 1982.22 290.321 1981.54 289.413C1980.98 288.655 1980.38 285.111 1980.21 281.536C1979.62 269.019 1973.6 252.337 1965.37 240.422C1960.63 233.558 1946.37 218.788 1939.34 213.467C1931.69 207.674 1915 198.94 1910.13 198.174C1908.2 197.872 1904.6 196.818 1902.13 195.831C1897.85 194.126 1887.33 194.032 1691.66 193.958C1578.38 193.916 1483.22 194.037 1480.19 194.227ZM2118.6 194.546C2108.94 195.535 2097.02 199.618 2088.1 204.988C2083.98 207.471 2080.11 209.51 2079.51 209.519C2077.48 209.55 2062.06 223.797 2054.6 232.543C2045.82 242.833 2040.38 253.38 2034.93 270.671L2031.67 281.036L2031.45 418.536C2031.34 494.161 2031.49 557.729 2031.79 559.798L2032.33 563.56L2068.97 563.298L2105.6 563.036L2105.86 508.786C2106.1 457.991 2106.23 454.535 2107.86 454.527C2150.2 454.317 2545.5 454.666 2545.74 454.913C2545.94 455.111 2546.08 478.511 2546.05 506.912C2546.02 535.314 2546.28 559.673 2546.62 561.044L2547.25 563.536H2584.18H2621.11L2620.82 419.786C2620.59 308.759 2620.24 275.581 2619.3 274.036C2618.63 272.936 2617.14 268.739 2615.99 264.71C2610.27 244.707 2594.01 223.786 2573.18 209.64C2561.51 201.71 2544.9 195.737 2531.04 194.48C2520.34 193.511 2128.09 193.574 2118.6 194.546ZM1243.59 266.979C1252.85 268.75 1257.69 271.479 1262.13 277.417C1268.24 285.602 1268.37 287.139 1268.03 343.389L1267.72 394.036L1265.01 398.649C1261.71 404.264 1256.8 408.706 1250.16 412.067L1245.18 414.594L1036.48 414.697L827.788 414.8V351.418V288.036L830.49 282.913C834.238 275.808 841.257 269.874 848.198 267.944C851.27 267.09 854.234 266.234 854.784 266.042C855.334 265.851 941.344 265.658 1045.92 265.615C1207.65 265.548 1237.18 265.751 1243.59 266.979ZM1885.9 267.553C1893 269.408 1894.09 270.05 1899.29 275.491C1904.1 280.511 1905.15 282.294 1906.2 287.223C1907.83 294.87 1908.13 383.666 1906.55 391.139C1905.18 397.627 1902.23 402.39 1896.32 407.639C1887.59 415.383 1908.07 414.727 1676.46 414.685C1561.91 414.664 1467.73 414.37 1467.19 414.032C1465.9 413.235 1465.83 296.981 1467.12 292.935C1467.62 291.341 1468.33 288.288 1468.69 286.152C1469.39 281.92 1477.3 272.564 1482.41 269.924C1490.86 265.552 1485.24 265.671 1686.93 265.602C1875.61 265.537 1878.27 265.563 1885.9 267.553ZM2524.13 267.145C2524.9 267.755 2527.02 268.535 2528.82 268.878C2533.48 269.761 2539.31 274.807 2542.66 280.856L2545.53 286.036L2545.82 334.286L2546.11 382.536H2326.06H2106.01L2106.3 335.786L2106.6 289.036L2109.3 283.536C2113.22 275.543 2118.67 270.674 2126.8 267.897L2133.59 265.575L2328.16 265.805C2468.83 265.972 2523.12 266.343 2524.13 267.145ZM715.689 386.536C715.689 393.411 715.849 396.224 716.044 392.786C716.24 389.349 716.24 383.724 716.044 380.286C715.849 376.849 715.689 379.661 715.689 386.536ZM2110.52 637.642C2109.37 638.218 2107.69 639.962 2106.77 641.517C2105.27 644.06 2105.1 649.528 2105.1 695.82V747.296L2111.16 747.734C2114.49 747.975 2118.54 747.978 2120.16 747.741L2123.1 747.309V706.089C2123.1 683.418 2123.39 664.573 2123.75 664.21C2124.62 663.343 2148.32 676.029 2199.08 704.539C2208.16 709.635 2224.13 718.522 2234.58 724.288C2245.03 730.055 2258.54 737.583 2264.61 741.018C2270.67 744.453 2276.6 747.569 2277.78 747.944C2280.95 748.949 2286.91 746.099 2288.08 743.019C2288.69 741.412 2289.07 720.79 2289.07 689.471V638.536L2284.07 638.411C2281.32 638.342 2277.61 638.204 2275.82 638.104C2269.73 637.762 2270.07 635.214 2270.07 680.643C2270.07 709.322 2269.74 722.536 2269.02 722.536C2268.44 722.536 2257.76 716.751 2245.27 709.68C2232.79 702.609 2209.53 689.471 2193.59 680.485C2177.64 671.498 2154.03 658.127 2141.12 650.772C2128.22 643.416 2116.52 637.217 2115.13 636.996C2113.74 636.775 2111.66 637.065 2110.52 637.642ZM765.797 638.418C748.06 639.265 742.182 642.194 735.467 653.536L732.802 658.036L732.496 691.036C732.277 714.652 732.535 725.27 733.401 728.375C735.08 734.393 742.831 742.652 749.529 745.56L754.799 747.848L820.289 747.918L885.779 747.988L890.745 745.512C896.004 742.89 902.567 736.827 904.738 732.585C907.851 726.503 908.437 719.106 908.106 690.036C907.796 662.77 907.646 660.755 905.606 656.34C902.963 650.618 895.987 643.455 890.124 640.441C885.803 638.22 885.482 638.206 832.287 638.002C802.867 637.889 772.946 638.076 765.797 638.418ZM948.186 638.478C942.736 639.207 932.992 644.797 929.686 649.091C928.392 650.771 926.408 654.238 925.276 656.795C923.304 661.257 923.222 663.186 923.252 704.661C923.269 728.431 923.458 748.054 923.673 748.268C923.887 748.482 927.934 748.343 932.666 747.959L941.271 747.261V740.538C941.271 736.84 941.555 731.742 941.902 729.209L942.534 724.602L1010.14 724.319L1077.75 724.036L1082.04 721.745C1087.6 718.778 1093.59 712.739 1096.36 707.327C1098.28 703.57 1098.61 700.974 1099.03 686.462C1099.83 659.058 1097.27 651.045 1084.97 642.407L1078.75 638.036L1015.76 637.95C981.115 637.903 950.707 638.14 948.186 638.478ZM1155.24 638.433C1137.93 638.919 1133.16 639.359 1130.74 640.691C1125.77 643.431 1119.8 649.77 1117.2 655.054C1114.78 659.976 1114.74 660.417 1114.45 691.39C1114.11 729.006 1114.36 730.495 1122.7 739.038C1131.8 748.358 1126.25 747.75 1205.23 748.081C1243.45 748.241 1279.11 748.12 1284.47 747.811L1294.22 747.25V738.393V729.536H1216.14C1138.9 729.536 1138.05 729.514 1137.53 727.536C1137.24 726.436 1136.43 725.536 1135.73 725.536C1133.71 725.536 1133.24 723.063 1133.24 712.46V702.548L1213.48 702.292L1293.72 702.036L1294.22 693.295C1294.6 686.578 1294.41 684.435 1293.39 684.045C1292.65 683.765 1256.32 683.536 1212.65 683.536H1133.24V674.083C1133.24 664.587 1134.48 659.536 1136.82 659.536C1137.51 659.536 1138.26 658.974 1138.49 658.286C1138.82 657.304 1155.52 656.973 1216.46 656.74C1290.67 656.457 1294.03 656.366 1294.49 654.612C1295.02 652.566 1294.3 639.283 1293.62 638.599C1292.92 637.904 1178.98 637.768 1155.24 638.433ZM1330.21 638.58C1323.36 639.5 1319.13 641.647 1315.97 645.809C1309.98 653.683 1310.22 651.401 1310.22 701.355V747.273L1314.37 747.83C1318.94 748.443 1327.09 747.997 1328 747.085C1328.64 746.439 1328.98 739.3 1329.12 723.286L1329.21 712.536H1384.49H1439.77L1457.12 731.068C1474.21 749.337 1474.49 749.576 1476.58 747.853C1482.25 743.166 1487.19 737.977 1487.19 736.716C1487.19 735.944 1484.33 732.325 1480.84 728.674C1468.68 715.977 1465.19 712.175 1465.19 711.607C1465.2 711.293 1467.39 709.806 1470.06 708.302C1483.25 700.891 1490.66 685.011 1488.23 669.34C1486.06 655.367 1478.45 645.877 1464.99 640.381C1459.78 638.249 1458.75 638.213 1397.7 638.029C1363.61 637.926 1333.24 638.174 1330.21 638.58ZM1535.68 638.536C1524.08 639.063 1521.45 639.914 1515.21 645.167C1510.92 648.782 1507.65 654.144 1505.74 660.698C1504.41 665.278 1504.21 672.271 1504.42 706.817L1504.66 747.536H1513.92H1523.18V731.036V714.536H1592.1H1661.01L1661.6 717.286C1661.93 718.799 1662.12 726.001 1662.02 733.291C1661.92 740.581 1662.05 746.759 1662.32 747.02C1663.06 747.771 1674.38 748.348 1677.41 747.791L1680.16 747.286V704.815C1680.16 659.567 1679.73 654.8 1675.12 649.49C1674.04 648.247 1673.16 647.57 1673.16 647.987C1673.16 648.403 1671.57 647.349 1669.64 645.646C1667.7 643.942 1664.21 641.533 1661.89 640.292L1657.66 638.036H1602.17C1571.65 638.036 1541.73 638.261 1535.68 638.536ZM1719.66 638.603C1712.04 639.72 1707.54 642.089 1701.16 648.336C1694.3 655.05 1692.72 659.271 1692.79 670.733C1692.83 677.321 1693.3 679.37 1696.04 684.941C1699.82 692.625 1705.29 697.695 1712.86 700.528C1718.02 702.457 1720.6 702.536 1778.78 702.536C1845.99 702.536 1843.36 702.28 1846.62 709.143C1849.97 716.211 1847.04 726.329 1841.02 728.426C1838.81 729.199 1816.36 729.536 1767.08 729.536H1696.32L1695.74 735.786C1694.83 745.56 1695.23 747.512 1698.16 747.666C1710.34 748.306 1836.67 748.181 1840.7 747.526C1857.98 744.713 1868.26 730.789 1866.52 712.558C1865.35 700.253 1860.52 693.014 1849.64 687.226L1843.64 684.036L1780.81 683.536L1717.99 683.036L1715.18 679.888C1709.09 673.067 1710.84 661.946 1718.56 658.439C1722.43 656.684 1726.59 656.579 1792.83 656.558L1863.01 656.536L1863.7 651.972C1864.4 647.265 1863.81 639.88 1862.64 638.703C1861.72 637.786 1725.87 637.691 1719.66 638.603ZM1947.62 638.412C1933.43 639.093 1930.4 640.043 1923.47 645.971C1921.35 647.79 1918.49 651.474 1917.12 654.157L1914.63 659.036V693.536C1914.63 727.062 1914.69 728.151 1916.8 732.104C1919.56 737.261 1926.05 743.144 1932 745.899C1936.57 748.013 1937.32 748.036 2002.61 748.036H2068.6L2072.6 745.631C2078.69 741.971 2083.99 736.577 2086.94 731.036L2089.6 726.036L2089.59 694.536C2089.59 677.211 2089.29 661.628 2088.93 659.907C2087.43 652.728 2082.24 646.269 2074.1 641.477L2068.6 638.237L2014.61 638.012C1984.92 637.889 1954.77 638.069 1947.62 638.412ZM2333.51 638.418C2325.03 638.997 2324.05 639.301 2318.01 643.256C2309.74 648.674 2306.18 654.152 2305 663.296C2304.53 667.003 2304.12 687.474 2304.1 708.786L2304.07 747.536H2313.54H2323.02L2323.29 731.286L2323.57 715.036L2392.31 714.779L2461.05 714.522L2461.24 717.279C2461.35 718.795 2461.49 723.861 2461.56 728.536C2461.63 733.211 2461.77 739.341 2461.86 742.158L2462.05 747.28L2466.12 747.932C2468.36 748.291 2472.44 748.287 2475.18 747.924L2480.15 747.264L2479.85 702.075L2479.54 656.887L2476.86 652.832C2473.91 648.371 2467.47 642.785 2462.05 639.97C2458.8 638.284 2454.42 638.142 2400.55 637.977C2368.66 637.88 2338.49 638.078 2333.51 638.418ZM2498.29 638.21L2495.04 638.663L2495.05 677.849C2495.05 700.167 2495.5 719.834 2496.1 723.536C2497.64 733.151 2504.26 741.894 2513.04 745.899C2517.4 747.891 2519.27 747.955 2576.03 748.051C2608.2 748.106 2636.21 747.955 2638.27 747.715L2642.02 747.28V738.408V729.536H2581.44H2520.87L2517.45 726.018L2514.04 722.5V680.518C2514.04 640.253 2513.96 638.536 2512.18 638.536C2511.15 638.536 2508.34 638.361 2505.93 638.147C2503.51 637.933 2500.08 637.962 2498.29 638.21ZM2822.49 638.479C2806.45 639.243 2803.17 640.311 2796.58 646.895C2788.66 654.824 2788.6 655.215 2788.23 704.148L2787.9 747.26L2791.72 747.773C2793.83 748.055 2797.9 748.06 2800.77 747.784L2805.99 747.282L2806.19 739.159C2806.3 734.691 2806.43 729.686 2806.49 728.036L2806.6 725.036L2874.54 724.536L2942.47 724.036L2946.7 721.78C2952.99 718.416 2957.24 714.292 2960.52 708.355C2963.42 703.114 2963.47 702.774 2963.82 685.114C2964.23 664.37 2963.17 657.487 2958.56 650.819C2954.21 644.532 2945.34 639.241 2937.98 638.537C2929.64 637.739 2838.97 637.694 2822.49 638.479ZM3009.46 638.437C3000.53 638.972 2998.85 639.391 2993.71 642.365C2987.1 646.182 2983.64 650.276 2980.89 657.488C2979.1 662.203 2978.97 665.518 2978.97 704.911V747.264L2983.36 747.866C2985.77 748.197 2990.05 748.195 2992.86 747.863L2997.97 747.257V730.897V714.536H3066.96H3135.95V730.977C3135.95 741.713 3136.32 747.651 3137.03 748.088C3137.63 748.457 3141.93 748.44 3146.6 748.052L3155.08 747.345L3154.76 701.663L3154.44 655.98L3150.57 651.25C3144.4 643.721 3138.47 639.952 3130.95 638.767C3123.97 637.67 3026.7 637.406 3009.46 638.437ZM3327.92 638.602C3327.09 639.12 3321.24 641.955 3314.92 644.902C3302.61 650.636 3292.66 655.363 3270.43 666.039C3243.28 679.074 3233.86 683.536 3233.49 683.536C3233.28 683.536 3223.85 688.036 3212.53 693.536C3201.21 699.036 3191.27 703.536 3190.44 703.536C3189.13 703.536 3188.94 699.319 3188.94 671.036V638.536H3179.44H3169.94V692.907V747.278L3177.73 747.957C3189.11 748.95 3188.82 749.234 3189.15 736.692L3189.44 726.036L3202.45 719.536C3209.6 715.961 3220.85 710.478 3227.44 707.351C3234.04 704.224 3243.38 699.773 3248.22 697.458C3257.97 692.785 3258.6 692.816 3264.93 698.293C3271.28 703.789 3287.12 716.902 3297.85 725.555C3303.66 730.24 3311.95 736.99 3316.26 740.555C3328.67 750.808 3326.94 750.501 3332.8 743.49C3335.61 740.119 3337.92 736.531 3337.92 735.517C3337.92 734.502 3336.45 732.644 3334.67 731.387C3332.88 730.131 3322.42 721.627 3311.42 712.49C3300.42 703.354 3288.66 693.782 3285.29 691.221C3281.91 688.66 3278.88 685.86 3278.55 685.001C3278.09 683.806 3280.12 682.418 3287.19 679.105C3298.22 673.928 3320.4 663.319 3331.17 658.063C3335.43 655.983 3338.91 654.002 3338.9 653.659C3338.86 652.117 3331.31 638.073 3330.42 637.879C3329.87 637.759 3328.74 638.084 3327.92 638.602ZM1880.13 693.036V747.536H1889.74C1898.09 747.536 1899.26 747.329 1898.74 745.954C1898.4 745.084 1898.13 720.559 1898.13 691.454V638.536H1889.13H1880.13V693.036ZM882.913 658.166C889.323 661.208 889.279 660.97 889.274 693.009L889.269 722.036L885.825 725.786L882.382 729.536H820.422C786.344 729.536 757.75 729.263 756.88 728.929C756.011 728.595 755.299 727.88 755.299 727.339C755.299 726.799 754.286 725.537 753.049 724.534C750.808 722.72 750.799 722.592 750.799 693.374V664.036L753.799 660.885C755.449 659.152 757.698 657.516 758.798 657.251C759.898 656.985 787.501 656.716 820.138 656.652C873.077 656.549 879.848 656.712 882.913 658.166ZM1077.41 660.536L1080.35 664.036L1080.05 681.579C1079.76 698.567 1079.67 699.222 1077.25 702.274L1074.75 705.425L1008.57 705.481L942.394 705.536L941.685 700.811C940.952 695.926 941.872 668.202 942.933 663.212C943.288 661.54 944.46 660.035 945.804 659.523C947.053 659.048 948.385 658.16 948.762 657.549C949.257 656.749 966.924 656.522 1011.96 656.737L1074.47 657.036L1077.41 660.536ZM1459.38 658.237C1466.87 661.584 1470.94 669.07 1469.72 677.231C1468.86 682.932 1466.86 687.106 1464.16 688.788C1463.08 689.464 1462.19 690.531 1462.19 691.16C1462.19 691.788 1461.18 692.574 1459.94 692.906C1458.71 693.237 1428.84 693.515 1393.57 693.522L1329.45 693.536L1328.87 691.314C1328.55 690.092 1328.56 682.015 1328.9 673.366L1329.52 657.64L1332.62 657.226C1334.32 656.999 1362.93 656.863 1396.2 656.925C1440.91 657.007 1457.4 657.349 1459.38 658.237ZM1657.43 658.909C1661.2 661.467 1661.66 663.812 1661.66 680.536L1661.66 695.036H1592.67H1523.68L1523.38 683.036C1523.21 676.436 1523.35 669.163 1523.68 666.874C1524.49 661.297 1528.1 657.762 1533.52 657.245C1535.81 657.027 1564 656.89 1596.17 656.942C1651.6 657.031 1654.81 657.134 1657.43 658.909ZM2068.04 660.466L2071.1 663.896V693.741V723.586L2068.5 724.575C2066.88 725.191 2066.1 726.092 2066.44 726.967C2066.74 727.739 2066.29 728.633 2065.46 728.953C2064.62 729.274 2036.45 729.536 2002.85 729.536C1958.29 729.536 1940.88 729.216 1938.49 728.351C1932.96 726.354 1932.62 724.293 1932.62 692.938C1932.62 662.13 1932.8 661.101 1938.47 658.189C1941.29 656.741 1948.14 656.595 2003.3 656.803L2064.98 657.036L2068.04 660.466ZM2450.3 657.188C2454.64 657.598 2457.05 658.266 2457.05 659.059C2457.05 659.737 2457.94 660.909 2459.03 661.664C2460.71 662.825 2461.1 664.572 2461.57 673.036C2461.88 678.536 2461.84 685.849 2461.47 689.286L2460.81 695.536H2391.85H2322.89L2323.23 679.786C2323.59 662.944 2324.22 660.69 2329.31 657.861C2331.04 656.898 2344.57 656.6 2387.56 656.579C2418.35 656.563 2446.58 656.837 2450.3 657.188ZM2936.38 657.489C2943.98 659.253 2944.43 660.412 2944.79 679.217C2944.97 688.364 2944.87 696.825 2944.57 698.02C2944.27 699.214 2942.91 701.394 2941.55 702.864L2939.07 705.536H2873.05H2807.03L2806.38 702.941C2805.62 699.892 2806.61 666.324 2807.58 662.228C2807.99 660.495 2808.75 659.611 2809.55 659.919C2810.26 660.193 2811.36 659.796 2811.99 659.037C2812.62 658.277 2814.12 657.465 2815.32 657.232C2819.72 656.375 2932.61 656.614 2936.38 657.489ZM3131.51 658.408C3135.06 660.778 3135.84 664.465 3136.05 680.036L3136.25 695.036L3067.11 695.293L2997.97 695.55V680.864C2997.97 672.21 2998.44 664.857 2999.13 662.961C3001.49 656.435 2999.78 656.587 3067.96 656.823C3118.12 656.997 3129.83 657.289 3131.51 658.408Z" fill="#1F2937"/>
</svg>
